<svg width="130" height="91" fill="none" xmlns="http://www.w3.org/2000/svg"><rect width="130" height="90.552" rx="11" fill="#0A3566"/><path fill-rule="evenodd" clip-rule="evenodd" d="M85.925 15.385h8.661l14.363 38.408h-8.768l-2.905-8.553H82.913l-3.012 8.553h-8.5l14.525-38.408zm9.145 23.561l-4.84-14.093h-.108L85.12 38.945h9.951z" fill="#FEFEFE"/><path fill-rule="evenodd" clip-rule="evenodd" d="M115.382 25.377h5.652v3.04h-5.652v5.652h-3.04v-5.653h-5.653v-3.04h5.653v-5.652h3.04v5.653z" fill="#FEFEFE" stroke="#fff"/><path fill-rule="evenodd" clip-rule="evenodd" d="M70.402 63.722h1.793v2.444h.045c.463-.942 1.03-1.637 1.703-2.085.673-.448 1.524-.657 2.555-.628v2.018c-.762 0-1.412.104-1.95.313-.538.21-.97.516-1.3.92-.328.403-.567.892-.717 1.468-.15.575-.224 1.236-.224 1.983v5.155h-1.905V63.722zm16.99 11.543c-.33.194-.785.292-1.368.292-.493 0-.885-.139-1.176-.415-.292-.276-.438-.728-.438-1.356-.522.627-1.131 1.08-1.826 1.356a6.037 6.037 0 01-2.253.415c-.523 0-1.02-.06-1.49-.18a3.468 3.468 0 01-1.222-.56 2.689 2.689 0 01-.818-.997c-.202-.411-.303-.908-.303-1.491 0-.657.112-1.195.337-1.614a2.94 2.94 0 01.885-1.02c.366-.261.784-.46 1.255-.594.47-.134.953-.246 1.446-.336.523-.104 1.02-.183 1.49-.235a8.262 8.262 0 001.244-.224c.359-.097.643-.24.852-.426.21-.187.314-.46.314-.818 0-.419-.079-.755-.236-1.009a1.613 1.613 0 00-.605-.583 2.46 2.46 0 00-.829-.269 6.266 6.266 0 00-.908-.067c-.807 0-1.48.153-2.017.46-.538.306-.83.885-.874 1.737h-1.905c.03-.718.179-1.323.448-1.816a3.397 3.397 0 011.076-1.199c.448-.306.96-.527 1.535-.661a8.113 8.113 0 011.85-.202c.522 0 1.041.037 1.557.112.516.075.983.228 1.4.46.42.231.755.556 1.01.975.254.418.38.963.38 1.636v5.962c0 .448.027.777.079.986.052.21.228.314.527.314.164 0 .358-.037.582-.112v1.48zm-3.093-5.94c-.24.18-.553.31-.942.393-.388.082-.796.15-1.221.202-.426.052-.856.112-1.29.179a4.732 4.732 0 00-1.165.325 2.12 2.12 0 00-.84.639c-.217.276-.325.653-.325 1.132 0 .313.063.579.19.795.127.217.292.393.493.527.202.135.437.232.706.291.27.06.553.09.852.09.628 0 1.166-.086 1.614-.258.448-.171.814-.388 1.098-.65.284-.261.493-.545.628-.851.134-.307.202-.594.202-.863v-1.95zM91 63.723h2.309v1.681H91v7.195c0 .224.019.403.056.538.038.135.109.24.213.314.105.075.25.123.437.145.187.023.43.034.729.034h.874v1.681h-1.457c-.493 0-.915-.034-1.266-.1-.352-.068-.635-.191-.852-.37-.217-.18-.377-.434-.482-.763-.105-.328-.157-.762-.157-1.3v-7.374h-1.972v-1.68h1.972v-3.475H91v3.474zm5.626-2.084h-1.905v-2.33h1.905v2.33zm-1.905 2.085h1.905V75.31h-1.905V63.723zm4.057 0h1.793v1.837h.045c.792-1.405 2.047-2.107 3.765-2.107.762 0 1.397.105 1.905.314.508.21.919.5 1.233.874.314.374.534.818.661 1.334a7.17 7.17 0 01.191 1.714v7.621h-1.905v-7.845c0-.717-.21-1.285-.628-1.703-.418-.419-.994-.628-1.726-.628-.583 0-1.087.09-1.513.27-.426.178-.78.433-1.064.761a3.283 3.283 0 00-.639 1.154 4.696 4.696 0 00-.213 1.446v6.545h-1.905V63.722zm21.651 10.6c0 1.899-.433 3.318-1.3 4.26-.866.94-2.226 1.412-4.079 1.412-.538 0-1.087-.06-1.647-.18a5.03 5.03 0 01-1.524-.583 3.549 3.549 0 01-1.132-1.053c-.299-.433-.464-.964-.493-1.591h1.905c.015.343.123.635.325.874.201.239.448.433.739.582.292.15.609.258.953.326.344.067.672.1.986.1.628 0 1.158-.108 1.592-.325a2.98 2.98 0 001.075-.896c.284-.381.49-.84.617-1.379.127-.538.19-1.128.19-1.77v-.762h-.044c-.329.717-.826 1.244-1.491 1.58a4.63 4.63 0 01-2.118.504c-.867 0-1.621-.157-2.264-.47a4.75 4.75 0 01-1.614-1.267 5.404 5.404 0 01-.975-1.86 7.697 7.697 0 01-.325-2.253c0-.687.09-1.393.269-2.118.18-.725.478-1.382.897-1.972a4.91 4.91 0 011.658-1.457c.688-.381 1.532-.572 2.533-.572.732 0 1.405.16 2.017.482a3.393 3.393 0 011.435 1.446h.022v-1.659h1.793v10.602zm-5.334-.56c.628 0 1.162-.13 1.603-.392a3.13 3.13 0 001.064-1.03c.269-.427.467-.908.594-1.446a7.002 7.002 0 00.191-1.614 6.33 6.33 0 00-.18-1.502 4.187 4.187 0 00-.571-1.334 2.977 2.977 0 00-1.02-.952c-.418-.24-.926-.359-1.524-.359-.613 0-1.136.116-1.569.348a3.06 3.06 0 00-1.065.93 3.951 3.951 0 00-.605 1.345 6.538 6.538 0 00-.19 1.591c0 .523.052 1.046.156 1.569.105.523.284.997.538 1.423.254.426.591.77 1.009 1.031.418.262.941.393 1.569.393z" fill="#FEFEFE"/><path fill-rule="evenodd" clip-rule="evenodd" d="M39.458 42H18.962l-.744 2.411h5.462l1.042 3.328h8.979l1.039-3.328h5.46L39.458 42zM22.306 28.449a4.689 4.689 0 00-.862 3.55 4.74 4.74 0 001.94 3.112l4.905 3.508c.264.187.435.463.485.778.051.315-.025.63-.215.89l.739.525 2.591-3.518a4.695 4.695 0 00.863-3.551 4.738 4.738 0 00-1.94-3.112l-4.905-3.507a1.181 1.181 0 01-.272-1.667l.002-.001-.74-.527-2.59 3.52m2.957-14.105a6.794 6.794 0 00-1.252 5.15 6.863 6.863 0 002.816 4.512l6.164 4.395a3.684 3.684 0 011.556 3.008c0 .777-.246 1.53-.72 2.17l.593.42 4.857-6.608a6.795 6.795 0 001.25-5.15 6.848 6.848 0 00-2.814-4.51l-7.444-5.326a2.119 2.119 0 01-.483-2.982l-.59-.419-3.933 5.34zm-6.841 45.02c1.174 0 1.882-.408 1.882-1.292v-.035c0-.799-.604-1.292-1.968-1.292H15.26v2.62h3.162zm-.708-4.797c1.175 0 1.917-.374 1.917-1.258v-.034c0-.783-.622-1.226-1.745-1.226h-2.626v2.518h2.454zm-5.046-4.815h5.616c1.382 0 2.47.375 3.161 1.056.554.544.83 1.208.83 2.024v.034c0 1.343-.727 2.093-1.59 2.568 1.4.529 2.264 1.329 2.264 2.927v.034c0 2.177-1.798 3.266-4.527 3.266h-5.754V49.752zm17.191 9.612c1.176 0 1.884-.408 1.884-1.292v-.035c0-.799-.605-1.292-1.971-1.292h-3.074v2.62h3.161zm-.708-4.797c1.176 0 1.916-.374 1.916-1.258v-.034c0-.783-.62-1.226-1.742-1.226h-2.627v2.518h2.453zm-5.045-4.815h5.616c1.381 0 2.47.375 3.16 1.056.552.544.83 1.208.83 2.024v.034c0 1.343-.725 2.093-1.589 2.568 1.399.529 2.262 1.329 2.262 2.927v.034c0 2.177-1.795 3.266-4.526 3.266h-5.753V49.752zm17.191 9.612c1.175 0 1.886-.408 1.886-1.292v-.035c0-.799-.608-1.292-1.972-1.292h-3.076v2.62h3.162zm-.709-4.797c1.175 0 1.918-.374 1.918-1.258v-.034c0-.783-.622-1.226-1.744-1.226h-2.627v2.518h2.453zm-5.043-4.815h5.614c1.383 0 2.471.375 3.162 1.056.553.544.83 1.208.83 2.024v.034c0 1.343-.726 2.093-1.59 2.568 1.4.529 2.264 1.329 2.264 2.927v.034c0 2.177-1.798 3.266-4.528 3.266h-5.752V49.752zm10.971 11.24c.094 0 .148-.05.148-.12v-.005c0-.081-.06-.122-.153-.122h-.185v.247h.19zm-.38-.413h.382c.116 0 .206.034.266.093.046.047.07.11.07.185v.003a.263.263 0 01-.184.263l.21.303h-.221l-.184-.273h-.15v.273h-.188v-.847zm1.046.447v-.006a.7.7 0 00-.712-.703.706.706 0 00-.717.709v.004a.7.7 0 00.712.703c.409 0 .717-.32.717-.707zm-1.521.005v-.005c0-.433.357-.796.81-.796.452 0 .805.359.805.792v.004a.803.803 0 01-.81.795.795.795 0 01-.805-.79z" fill="#fff"/><path fill-rule="evenodd" clip-rule="evenodd" d="M14.154 69.526h-1.602l-.245 1.24h-.652l1.213-6.153h1.023l1.213 6.153h-.706l-.244-1.24zm-.815-4.14l-.697 3.552h1.412l-.715-3.551zm4.092-.834c.978 0 1.43.615 1.43 1.547v.553h-.67v-.588c0-.554-.226-.888-.741-.888-.508 0-.743.334-.743.888v3.252c0 .553.235.888.742.888.516 0 .743-.334.743-.888v-.8h.67v.765c0 .931-.453 1.547-1.43 1.547-.97 0-1.422-.616-1.422-1.547v-3.182c0-.932.453-1.547 1.421-1.547zm3.848 0c.978 0 1.43.615 1.43 1.547v.553h-.67v-.588c0-.554-.226-.888-.742-.888-.507 0-.742.334-.742.888v3.252c0 .553.235.888.742.888.516 0 .743-.334.743-.888v-.8h.67v.765c0 .931-.453 1.547-1.43 1.547-.97 0-1.422-.616-1.422-1.547v-3.182c0-.932.453-1.547 1.421-1.547zm2.481.061h1.412c.996 0 1.412.493 1.412 1.407v.5c0 .678-.244 1.1-.787 1.266.58.167.796.624.796 1.284v.958c0 .272.01.527.127.738h-.715c-.081-.176-.118-.334-.118-.747v-.967c0-.694-.335-.914-.923-.914h-.498v2.628h-.706v-6.153zm.706 2.9h.525c.562 0 .896-.175.896-.843v-.589c0-.554-.208-.844-.733-.844h-.688v2.277zm3.975-.175h1.548v.615H28.44v2.189h1.9v.624h-2.606v-6.153h2.607v.624H28.44v2.101zm2.96-2.725h1.485c.987 0 1.44.58 1.44 1.53v3.103c0 .94-.453 1.52-1.44 1.52h-1.484v-6.153zm.707 5.529h.77c.506 0 .75-.308.75-.87v-3.165c0-.562-.244-.87-.76-.87h-.76v4.905zm3.286-5.529h.706v6.153h-.706v-6.153zm3.468 6.153h-.706v-5.529h-1.168v-.624h3.042v.624h-1.168v5.53zm2.77-3.428h1.549v.615h-1.548v2.189h1.9v.624h-2.607v-6.153h2.608v.624h-1.901v2.101zm2.961-2.725h1.485c.987 0 1.44.58 1.44 1.53v3.103c0 .94-.453 1.52-1.44 1.52h-1.485v-6.153zm.707 5.529h.769c.507 0 .751-.308.751-.87v-3.165c0-.562-.244-.87-.76-.87h-.76v4.905zm-29.162 3.436h1.467c1.019 0 1.42.457 1.42 1.36v.29c0 .65-.195 1.054-.766 1.22.636.167.879.641.879 1.317v.518c0 .921-.477 1.44-1.496 1.44h-1.504v-6.145zm.729 2.607h.56c.58 0 .88-.175.88-.816v-.36c0-.544-.197-.807-.72-.807h-.72v1.983zm0 2.915h.776c.532 0 .775-.264.775-.834v-.545c0-.684-.29-.912-.916-.912h-.635v2.29zm4.048-5.521v4.696c0 .552.233.886.766.886.523 0 .757-.334.757-.886v-4.696h.683v4.66c0 .93-.458 1.554-1.468 1.554-1 0-1.458-.623-1.458-1.554v-4.66h.72zm4.72-.062c.991 0 1.459.606 1.459 1.536v.167h-.692v-.202c0-.553-.224-.878-.748-.878-.523 0-.748.325-.748.87 0 1.377 2.197 1.509 2.197 3.238 0 .93-.477 1.536-1.477 1.536s-1.467-.606-1.467-1.536v-.351h.682v.386c0 .553.243.878.766.878.524 0 .767-.325.767-.878 0-1.369-2.187-1.5-2.187-3.23 0-.948.467-1.536 1.448-1.536zm2.525.062h.729v6.144h-.73v-6.144zm2.543 1.176v4.968h-.655v-6.144h.926l1.514 4.441v-4.441h.645v6.144h-.757l-1.673-4.968zM35.03 76.3h1.598v.614H35.03V79.1h1.963v.623h-2.692v-6.144h2.692v.623H35.03V76.3zm4.43-2.783c.992 0 1.459.606 1.459 1.536v.167h-.692v-.202c0-.553-.224-.878-.748-.878-.523 0-.747.325-.747.87 0 1.377 2.196 1.509 2.196 3.238 0 .93-.477 1.536-1.477 1.536s-1.467-.606-1.467-1.536v-.351h.682v.386c0 .553.243.878.767.878.523 0 .766-.325.766-.878 0-1.369-2.187-1.5-2.187-3.23 0-.948.467-1.536 1.449-1.536zm3.9 0c.99 0 1.457.606 1.457 1.536v.167h-.691v-.202c0-.553-.225-.878-.748-.878-.524 0-.748.325-.748.87 0 1.377 2.197 1.509 2.197 3.238 0 .93-.477 1.536-1.477 1.536s-1.468-.606-1.468-1.536v-.351h.683v.386c0 .553.243.878.766.878s.767-.325.767-.878c0-1.369-2.188-1.5-2.188-3.23 0-.948.468-1.536 1.45-1.536z" fill="#FEFEFE"/><path opacity=".167" d="M60.069 7.172v75.759" stroke="#fff" stroke-linecap="square"/></svg>
