<svg xmlns="http://www.w3.org/2000/svg" xmlns:xlink="http://www.w3.org/1999/xlink" height="100" width="100" version="1.1" preserveAspectRatio="xMidYMid">
    <!-- <g fill="#cb3436" stroke="none">
                    <path d="M20 10 A 50 50 0 0 1 80 10 L 50 40 z "/>
                    <path d="M 10 20 A 50 50 0 0 0 10 80 L 40 50 z " />
                    <path d="M20 90 A 50 50 0 0 0 80 90 L 50 60 z " />
                    <path d="M90 20 A 50 50 0 0 1 90 80 L 60 50 z " />
    </g>
    <circle cx="50" cy="50" r="50" fill="none" stroke="#cb3436" stroke-width="3"/> -->
    <path d="M 10 0 L50 40, 90 0,Q 100 0, 100 10 L 60 50, 100 90, Q 100 100, 90 100, L 50 60, 10 100,Q 0 100, 0 90,L 40 50, 0 10 Q 0 0, 10 0" cx="10" cy="10"/>
</svg>