<?xml version="1.0" encoding="iso-8859-1"?>
<!-- Generator: Adobe Illustrator 16.0.0, SVG Export Plug-In . SVG Version: 6.00 Build 0)  -->
<!DOCTYPE svg PUBLIC "-//W3C//DTD SVG 1.1//EN" "http://www.w3.org/Graphics/SVG/1.1/DTD/svg11.dtd">
<svg version="1.1" id="Capa_1" xmlns="http://www.w3.org/2000/svg" xmlns:xlink="http://www.w3.org/1999/xlink" x="0px" y="0px"
	 width="30px" height="20px" viewBox="0 0 485.87 485.869" style="enable-background:new 0 0 485.87 485.869;"
	 xml:space="preserve">
<g>
	<g>
		<path d="M41.766,378.467h260.393v107.402l99.884-107.402h42.061V0H41.766V378.467z M376.792,158.709
			c18.829,0,34.091,15.264,34.091,34.09c0,18.83-15.265,34.09-34.091,34.09s-34.091-15.264-34.091-34.09
			C342.703,173.971,357.964,158.709,376.792,158.709z M287.554,158.709c18.828,0,34.09,15.264,34.09,34.09
			c0,18.83-15.264,34.09-34.09,34.09c-18.829,0-34.093-15.264-34.093-34.09C253.461,173.971,268.725,158.709,287.554,158.709z
			 M198.314,158.709c18.829,0,34.091,15.264,34.091,34.09c0,18.83-15.264,34.09-34.091,34.09c-18.83,0-34.09-15.264-34.09-34.09
			C164.224,173.971,179.485,158.709,198.314,158.709z M109.074,158.709c18.83,0,34.092,15.264,34.092,34.09
			c0,18.83-15.265,34.09-34.092,34.09c-18.825,0-34.09-15.264-34.09-34.09C74.984,173.971,90.246,158.709,109.074,158.709z"/>
	</g>
</g>
<g>
</g>
<g>
</g>
<g>
</g>
<g>
</g>
<g>
</g>
<g>
</g>
<g>
</g>
<g>
</g>
<g>
</g>
<g>
</g>
<g>
</g>
<g>
</g>
<g>
</g>
<g>
</g>
<g>
</g>
</svg>
