<svg width="48" height="48" viewBox="0 0 48 48" fill="none" xmlns="http://www.w3.org/2000/svg">
<rect width="48" height="48" rx="10" fill="#2D76F9"/>
<path d="M36.1601 13.9187C36.1098 13.5577 35.8501 13.2607 35.499 13.1631L24.2453 10.0335C24.0848 9.98884 23.9154 9.98884 23.7548 10.0335L12.5011 13.1631C12.15 13.2607 11.8903 13.5576 11.84 13.9187C11.7747 14.3881 10.2857 25.4778 14.105 30.9946C17.9198 36.5048 23.5475 37.9169 23.7852 37.9743C23.8558 37.9914 23.9278 37.9998 24.0001 37.9998C24.0723 37.9998 24.1443 37.9913 24.2149 37.9743C24.4527 37.9169 30.0804 36.5048 33.8951 30.9946C37.7144 25.4779 36.2254 14.3882 36.1601 13.9187ZM31.2572 20.393L23.5811 28.0691C23.4025 28.2478 23.1682 28.3372 22.9341 28.3372C22.7 28.3372 22.4657 28.2479 22.2871 28.0691L17.541 23.3231C17.3694 23.1515 17.273 22.9187 17.273 22.6761C17.273 22.4334 17.3695 22.2006 17.541 22.0291L18.4834 21.0867C18.8407 20.7295 19.4201 20.7294 19.7774 21.0867L22.9341 24.2435L29.0209 18.1565C29.1924 17.9849 29.4252 17.8885 29.6679 17.8885C29.9106 17.8885 30.1433 17.9849 30.3149 18.1565L31.2572 19.0989C31.6146 19.4563 31.6146 20.0357 31.2572 20.393Z" fill="white"/>
</svg>