<svg width="48" height="48" viewBox="0 0 48 48" fill="none" xmlns="http://www.w3.org/2000/svg">
<rect width="48" height="48" rx="10" fill="#2D76F9"/>
<path d="M37.6456 11.0949C37.5361 10.7664 37.2624 10.4927 36.934 10.3832C35.1822 10 33.8136 10 32.445 10C26.8064 10 23.4122 13.0657 20.894 17.0072H15.1459C14.27 17.062 13.2299 17.6641 12.8467 18.4853L10.1095 23.9049C10.0547 24.0692 10 24.2881 10 24.4524C10 25.2188 10.5474 25.7662 11.3139 25.7662H16.9525L15.7481 27.0253C15.4744 27.299 15.2554 27.8465 15.2554 28.2844C15.2554 28.6676 15.4744 29.2151 15.7481 29.4888L18.54 32.2807C18.8138 32.5544 19.3612 32.8282 19.7444 32.8282C20.1823 32.8282 20.7298 32.5544 21.0035 32.2807L22.2626 31.0764V36.715V36.7697C22.2626 37.4814 22.8101 38.0836 23.5765 38.0836C23.7407 38.0836 23.9597 37.9741 24.1239 37.9193L29.5435 35.2369C30.3647 34.7989 30.9669 33.7588 30.9669 32.8829V27.1348C34.9632 24.6166 37.9741 21.2225 37.9741 15.5839C38.0288 14.2153 38.0288 12.8467 37.6456 11.0949ZM31.0216 19.197C29.7625 19.197 28.8319 18.2663 28.8319 17.0072C28.8319 15.8028 29.7625 14.8175 31.0216 14.8175C32.226 14.8175 33.2114 15.8028 33.2114 17.0072C33.2114 18.2663 32.226 19.197 31.0216 19.197Z" fill="white"/>
</svg>
