<svg xmlns="http://www.w3.org/2000/svg" xmlns:xlink="http://www.w3.org/1999/xlink" height="250" width="250" version="1.1" preserveAspectRatio="xMidYMid">
    <!-- the pen -->
    <!-- the pen cap -->
    <path d="M 195 19 L 205 20.5, 200 71.5, 182.5 70 z" fill="goldenrod"/>
    <path d="M 203 30, Q 203 23, 206 23 Q 207 23, 204 75, Q 202 75, 200.5 63, L 203.5 61, 205 30 z " fill="goldenrod" />
    <!-- the pen body -->
    <polygon points="183 70, 198 71.5, 188.5 124, 172 120" fill="#100156"/>

    <!-- held part -->
    <polygon points="172 120, 188.5 124, 175 163, 169 162" fill="#100152"/>

    <!-- pen nib -->
     <path d="M 169 162.5 L 174 162.5, 174.5 170, 169.5 180, 170.5 170 A 1 1 0 1 0 170 170 L 169 180, 166.5 169.5 z " fill="goldenrod"/>

     <!-- the papers -->
     

     <!-- paper 3 -->
     <path d="M 45 130, Q 22 135, 10 150 Q 75 160, 100 220, Q 80 150, 45 130" fill="orange"/>

     <!-- paper 2 -->
     <path d="M 65 95, Q 43 97, 20 110 Q 75 145, 100 220, Q 110 140, 65 96" fill="purple" />

     <!-- paper 1 -->
     <path d="M 186 55 L 182.5 51 Q 110 35, 40 60, Q 110 150, 100 220, Q 160 190, 230 210 L 210 125, 227 207 Q 160 190, 105 211, Q 120 150, 52 62, Q 110 40, 182 52 z" fill="blue" />

     <!-- lines -->
    <path d="M 87 87 Q 135 75, 178 79" stroke="blue" fill="none" stroke-width="1"/>
    <path d="M 100 100 Q130 90, 170 93" stroke="blue" fill="none"/>
    <path d="M 112 120 Q 140 110, 170 112" stroke="blue" fill="none"/>
    <path d="M 120 140 Q 145 130, 170 135" stroke="blue" fill="none"/>
    <path d="M 121 162 Q 143 155, 165 157" stroke="blue" fill="none"/>
    <path d="M 130 180, C 140 177, 152 185, 160 180 L 167 180" stroke="blue" fill="none"/>
</svg>