<svg width="180" height="180" viewBox="0 0 180 180" fill="none" xmlns="http://www.w3.org/2000/svg">
<g clip-path="url(#clip0_234_81)">
<path d="M94.03 94.02L94.06 94.09C80.13 108.51 62.27 118.45 44.06 126.17C37 129.26 29.79 132 23 135.31V178.55C18.6338 178.193 14.3901 176.93 10.54 174.84C8.02482 173.48 5.88618 171.518 4.31552 169.129C2.74485 166.739 1.7912 163.998 1.53995 161.15C1.47995 160.47 1.44995 159.79 1.44995 159.1C1.44995 158.41 1.44995 157.81 1.53995 157.17C2.18995 149.97 6.04995 144.55 11.84 140.38C12.66 139.79 13.51 139.21 14.41 138.66C17.1883 136.976 20.0559 135.444 23 134.07C26.51 132.41 30.24 130.83 34.09 129.23L41.81 126C49.1419 123.008 56.3178 119.647 63.31 115.93C74.4687 110.042 84.6821 102.515 93.61 93.6L94.03 94.02Z" fill="url(#paint0_linear_234_81)"/>
<path d="M94.0699 94.07C108.5 80.15 118.48 62.28 126.17 44.07C129.4 36.67 132.31 29.07 135.8 22.01H178.37C177.948 17.9971 176.749 14.1047 174.84 10.55C173.483 8.03451 171.523 5.8953 169.135 4.32444C166.747 2.75358 164.007 1.80025 161.16 1.55002C160.475 1.48179 159.788 1.44841 159.1 1.45002C158.432 1.44698 157.764 1.48037 157.1 1.55002C150 2.17002 144.55 6.00002 140.38 11.83C139.78 12.66 139.21 13.53 138.65 14.44C137.21 16.8 135.86 19.33 134.57 22C132.73 25.81 130.99 29.9 129.24 34.15C128.2 36.6834 127.13 39.2567 126.03 41.87C123.049 49.2002 119.701 56.3759 116 63.37C110.097 74.5186 102.564 84.7242 93.6499 93.65V93.65L94.0699 94.07" fill="url(#paint1_linear_234_81)"/>
<path d="M177.23 22C176.738 17.8112 175.375 13.7715 173.23 10.14C171.719 7.78056 169.624 5.8513 167.149 4.53908C164.673 3.22686 161.901 2.57616 159.1 2.65V0C170.6 0 177.94 8.35 179.6 22H177.19" fill="url(#paint2_linear_234_81)"/>
<path d="M23 177.33V179.72C8.57 178.39 0 171 0 159.13H2.68C2.63223 161.921 3.29452 164.678 4.60468 167.143C5.91484 169.607 7.82989 171.699 10.17 173.22C14.0787 175.554 18.4649 176.973 23 177.37" fill="url(#paint3_linear_234_81)"/>
<path d="M159.1 0V2.65C149.88 2.65 142.75 8.85 138.25 17.29C137.39 18.83 136.58 20.4 135.8 22C132.31 29.09 129.4 36.66 126.17 44.06C118.48 62.28 108.5 80.15 94.07 94.06C80.14 108.48 62.28 118.42 44.07 126.14C37 129.26 29.79 132 23 135.31C21.06 136.24 19.15 137.21 17.29 138.25C8.85 142.74 2.65 149.88 2.65 159.1H0C0 158.62 0 158.1 0 157.68C0 157.26 0 156.91 0.09 156.54C0.09 156.4 0.09 156.26 0.09 156.13C0.09 155.71 0.2 155.3 0.27 154.89C0.34 154.48 0.43 154.01 0.53 153.58C0.63 153.15 0.7 152.9 0.8 152.58C0.85 152.4 0.9 152.23 0.96 152.06C1.03 151.82 1.11 151.58 1.19 151.35L1.32 150.99C1.60159 150.254 1.93579 149.538 2.32 148.85C3.0998 147.361 4.04584 145.966 5.14 144.69C5.42 144.37 5.7 144.05 6 143.74C6.3 143.43 6.6 143.12 6.91 142.82C7.22 142.52 7.55 142.22 7.91 141.93C11.8 138.47 16.91 135.64 22.97 132.93C42.13 124.21 69.97 116.49 93.16 93.29C116.77 69.68 124.36 41.29 133.26 22.1C135.289 17.4305 137.889 13.0303 141 9C141.552 8.30391 142.14 7.63638 142.76 7C143.06 6.69 143.37 6.38 143.68 6.09C143.99 5.8 144.31 5.51 144.63 5.23C144.95 4.95 145.29 4.69 145.63 4.43C146.288 3.90893 146.98 3.43126 147.7 3C148.06 2.79 148.43 2.58 148.8 2.39C149.17 2.2 149.54 2.02 149.93 1.85L150.85 1.47L151.47 1.25L152.28 0.99C152.69 0.86 153.11 0.75 153.54 0.65C153.97 0.55 154.41 0.46 154.85 0.39C155.29 0.32 155.67 0.26 156.09 0.21H156.5C156.873 0.17 157.253 0.14 157.64 0.12C158.14 0 158.62 0 159.1 0Z" fill="url(#paint4_linear_234_81)"/>
<path d="M119.36 0C71.6299 0 80.2699 32.51 56.4099 56.38L93.2399 93.21C133.05 53.39 127.31 0 159.13 0H119.36Z" fill="url(#paint5_linear_234_81)"/>
<path d="M56.38 56.38C32.48 80.24 0 71.59 0 119.36V159.13C0 127.31 53.41 133.05 93.21 93.24L56.38 56.38Z" fill="#FFB333"/>
<path d="M154.41 0C120.72 0 126.81 50.93 88.8701 88.87L90.3201 90.32C128.88 51.76 122.91 0 156 0H154.41Z" fill="url(#paint6_linear_234_81)"/>
<path d="M88.87 88.87C50.91 126.84 0 120.72 0 154.42V156C0 122.93 51.76 128.9 90.32 90.36L88.87 88.87Z" fill="url(#paint7_linear_234_81)"/>
<path d="M122.44 0C76 0 84.38 34.15 59.27 59.27L60.71 60.71C86.45 35 78.15 0 124 0H122.44Z" fill="url(#paint8_linear_234_81)"/>
<path d="M59.27 59.27C34.17 84.36 0 76 0 122.44V124C0 78.15 35 86.45 60.71 60.71L59.27 59.27Z" fill="#FFEA6B"/>
<path d="M48.13 110.85C44.68 112.4 41.4 110.9 39.64 106.99C37.88 103.08 39.08 99.57 42.64 97.99C43.6875 97.4873 44.8383 97.2372 46 97.26L46.1 99.48C45.2439 99.4418 44.3916 99.617 43.62 99.99C41.69 100.87 40.73 102.93 42.06 105.89C43.39 108.85 45.48 109.61 47.06 108.89C47.5135 108.706 47.9301 108.442 48.29 108.11L46.74 104.66L44.85 105.51L44 103.69L48.15 101.83L51.21 108.65C50.3598 109.608 49.3033 110.36 48.12 110.85H48.13Z" fill="white"/>
<path d="M58.4399 105.73C56.1199 106.97 53.6499 106.57 52.4399 104.21L47.8799 95.7999L50.2099 94.5599L54.7099 102.98C54.8292 103.216 54.994 103.425 55.1948 103.597C55.3957 103.769 55.6285 103.899 55.8799 103.98C56.3847 104.127 56.9272 104.07 57.3899 103.82C57.8487 103.568 58.1906 103.146 58.342 102.645C58.4935 102.144 58.4424 101.604 58.1999 101.14L53.6999 92.7199L55.9999 91.4399L60.4999 99.8499C61.7999 102.21 60.7999 104.48 58.4399 105.73Z" fill="white"/>
<path d="M62.9101 87L60.3401 88.72L64.0801 102.51L66.3701 101L65.4401 97.81L69.3401 95.24L71.9101 97.32L74.1901 95.78L62.9101 87ZM64.8001 95.89L63.4201 91.26C63.2559 90.7204 63.0554 90.1926 62.8201 89.68V89.68C63.202 90.0919 63.6095 90.4793 64.0401 90.84L67.7901 93.84L64.8001 95.89Z" fill="white"/>
<path d="M75.8399 87.7199C76.2467 87.6856 76.6536 87.7838 76.9999 87.9999L80.9999 90.0899L83.1299 88.2699L78.9699 86.1399C78.2266 85.6989 77.3571 85.5194 76.4999 85.6299C76.9796 85.0136 77.2275 84.2483 77.2 83.4677C77.1726 82.6872 76.8717 81.9411 76.3499 81.3599C74.7299 79.4299 72.3999 79.3599 69.8199 81.5199C68.7386 82.3913 67.8412 83.4688 67.1799 84.6899L75.5399 94.6899L77.5399 93.0199L73.9999 88.8099L74.7599 88.1699C75.061 87.9058 75.4404 87.7477 75.8399 87.7199V87.7199ZM73.8399 86.4899L72.7699 87.3899L70.0799 84.1799C70.3482 83.7445 70.686 83.3561 71.0799 83.0299C72.3699 81.9399 73.4299 82.0299 74.3999 83.1699C75.3699 84.3099 75.1299 85.4199 73.8399 86.4899Z" fill="white"/>
<path d="M79.0699 73L76.9399 75.26L78.9399 78.88V78.98L83.7099 87.84L85.5899 85.84L85.3499 85.42L85.2799 85.3L83.9999 82.91L87.2199 79.51L90.2199 80.95L91.9999 79L79.0699 73ZM82.9399 81.21L80.5499 77C80.2497 76.5105 79.9156 76.0427 79.5499 75.6C80.0121 75.921 80.4967 76.2084 80.9999 76.46L85.3699 78.55L82.9399 81.21Z" fill="white"/>
<path d="M97.6901 71.3201L88.3501 70.4501C87.7573 70.3899 87.1693 70.2896 86.5901 70.1501V70.1501C86.5901 70.1501 87.3501 70.6601 88.0401 71.1501L94.3601 75.8101L93.0001 77.6701L82.0601 69.6701L83.4001 67.8501L92.5101 68.6801C93.1015 68.75 93.6889 68.8501 94.2701 68.9801C94.2701 68.9801 93.4801 68.4401 92.7901 67.9801L86.7001 63.3801L88.0001 61.5601L99.0001 69.6001L97.6901 71.3201Z" fill="white"/>
<path d="M93.29 57.1L103 62.89L101.65 65.15L91.92 59.36L90.45 61.81L88.52 60.68L92.8 53.53L94.7 54.66L93.29 57.1Z" fill="white"/>
<path d="M105.69 58.22L93.6101 52.07L96.8701 45.64L98.8701 46.64L96.7801 50.76L99.7801 52.29L101.67 48.57L103.6 49.57L101.71 53.29L104.9 54.9L107 50.76L109 51.76L105.69 58.22Z" fill="white"/>
<path d="M110.21 49L97.8201 43.5L100.75 37L102.75 37.89L100.88 42.12L103.98 43.49L105.66 39.67L107.66 40.56L106 44.36L109.27 45.81L111.14 41.58L113.14 42.48L110.21 49Z" fill="white"/>
<path d="M36.78 96.83L32.6 89.24C32.19 88.5 31.78 87.59 31.78 87.59C31.78 87.59 31.98 88.59 32.07 89.46L33 98.4L31.45 99.05L25.77 92.05C25.2 91.36 24.65 90.53 24.65 90.53C24.65 90.53 24.99 91.46 25.23 92.27L27.64 100.61L25.38 101.54L21.71 88.39L24.47 87.25L29.68 93.69C30.19 94.33 30.68 95.15 30.68 95.15C30.68 95.15 30.47 94.15 30.38 93.39L29.51 85.19L32.34 84L39.07 95.87L36.78 96.83Z" fill="#0C0648"/>
<path d="M46.69 84.76C44.96 81.21 42.14 79.23 38.92 80.76C35.7 82.29 35.5 85.76 37.22 89.31C38.94 92.86 41.77 94.87 44.99 93.31C48.21 91.75 48.41 88.31 46.69 84.76ZM44 91.21C42.45 91.95 40.85 90.65 39.63 88.15C38.41 85.65 38.39 83.57 39.94 82.82C41.49 82.07 43.11 83.37 44.32 85.88C45.53 88.39 45.51 90.46 44 91.21Z" fill="#0C0648"/>
<path d="M58.3501 85.67L50.0001 81.32C49.476 81.0412 48.9715 80.7272 48.4901 80.38C48.4901 80.38 49.0001 81.15 49.4401 81.87L53.5101 88.58L51.5801 89.75L44.5801 78.16L46.5101 77L54.6101 81.22C55.1301 81.51 55.6101 81.82 56.1301 82.16C56.1301 82.16 55.6101 81.37 55.1301 80.63L51.1801 74.14L53.1701 73L60.1701 84.59L58.3501 85.67Z" fill="#0C0648"/>
<path d="M62.82 82.6401L54.46 72.0001L60.13 67.5601L61.49 69.3001L57.85 72.1501L59.94 74.8201L63.22 72.2401L64.56 73.9501L61.27 76.5001L63.47 79.3201L67.12 76.4701L68.47 78.2101L62.82 82.6401Z" fill="#0C0648"/>
<path d="M71.05 68.38L74.87 72.0801L73 74L69.19 70.3001L60.47 67.4401L62.47 65.4401L68.2 67.5L65.94 61.8L67.94 59.8L71.05 68.38Z" fill="#0C0648"/>
<path d="M84.1501 54.0001C83.5299 53.5792 82.791 53.3686 82.0421 53.3992C81.2932 53.4298 80.5739 53.7 79.9901 54.1701V54.1701C80.177 53.5355 80.1488 52.857 79.9101 52.2401C79.6827 51.6206 79.2574 51.0934 78.7001 50.7401C76.9201 49.5301 74.7001 49.9901 72.8101 52.8401C72.0114 53.9847 71.4379 55.2709 71.1201 56.6301L81.4801 63.6301C82.6295 62.8211 83.6166 61.8035 84.3901 60.6301C86.3401 57.7301 86.1401 55.3901 84.1501 54.0001ZM76.7901 57.4801L73.7101 55.4001C73.8666 54.8926 74.1029 54.4132 74.4101 53.9801C75.4101 52.5301 76.4101 52.2801 77.4101 52.9801C77.658 53.1326 77.8696 53.3373 78.0301 53.5801C78.1897 53.8241 78.2923 54.1009 78.3301 54.3901C78.3378 55.029 78.11 55.6484 77.6901 56.1301L76.7901 57.4801ZM82.6901 59.5501C82.3954 60.0014 82.0309 60.4031 81.6101 60.7401L78.3401 58.5301L79.3401 57.1301C79.6518 56.5611 80.1395 56.1085 80.7301 55.8401C81.0431 55.6984 81.3913 55.6531 81.7301 55.7101C82.0553 55.7487 82.3634 55.8768 82.6201 56.0801C83.7001 56.8801 83.7301 58.0001 82.6901 59.5601V59.5501Z" fill="#0C0648"/>
<path d="M92.0601 47.1101L93.3501 44.71L79.2701 42.3L77.8101 45L87.6301 55.3601L88.9201 53L86.5901 50.6301L88.8001 46.51L92.0601 47.1101ZM85.1501 49.21L81.7501 45.78C81.3482 45.3785 80.917 45.0075 80.4601 44.67C80.9931 44.855 81.5376 45.0053 82.0901 45.12L86.8601 45.9901L85.1501 49.21Z" fill="#0C0648"/>
<path d="M95.8899 39.43C94.6599 42.14 91.59 43.43 87.3 41.43C83.01 39.43 81.9099 36.36 83.1399 33.65C83.5254 32.7012 84.17 31.88 84.9999 31.28L86.5999 32.9C86.0528 33.2301 85.6227 33.7231 85.37 34.31C84.65 35.9 85.6 37.69 88.37 38.96C91.14 40.23 93.1299 39.75 93.8399 38.17C94.1177 37.5921 94.212 36.9431 94.11 36.31L96.41 36.45C96.5202 37.4725 96.34 38.5053 95.8899 39.43V39.43Z" fill="#0C0648"/>
<path d="M100.59 27.67L92.7199 29.12L98.9999 31.74L97.9999 34.18L85.4199 29L86.4199 26.55L92.0999 28.88L87.9999 22.65L89.1299 19.9L93.3999 26.56L101.71 24.94L100.59 27.67Z" fill="#0C0648"/>
<path d="M33.0001 108.83L31.0001 106.18L30.6701 109.44L27.5601 110.44L30.5601 111.75V115.03L32.7401 112.57L35.8601 113.57L34.2001 110.74L36.1301 108.09L33.0001 108.83Z" fill="url(#paint9_linear_234_81)"/>
<path d="M111.78 30.59L110.47 27.59L109.47 30.71L106.21 31.03L108.83 33L108.12 36.21L110.78 34.28L113.61 35.95L112.61 32.82L115.07 30.65L111.78 30.59Z" fill="url(#paint10_linear_234_81)"/>
</g>
<defs>
<linearGradient id="paint0_linear_234_81" x1="1.44995" y1="136.08" x2="126.84" y2="136.08" gradientUnits="userSpaceOnUse">
<stop stop-color="#C66600"/>
<stop offset="0.1" stop-color="#933300"/>
</linearGradient>
<linearGradient id="paint1_linear_234_81" x1="136.03" y1="1.43002" x2="136.03" y2="94.09" gradientUnits="userSpaceOnUse">
<stop offset="0.9" stop-color="#B95900"/>
<stop offset="1" stop-color="#EC8C0D"/>
</linearGradient>
<linearGradient id="paint2_linear_234_81" x1="169.36" y1="22.01" x2="169.36" y2="0" gradientUnits="userSpaceOnUse">
<stop offset="0.02" stop-color="#FFB333"/>
<stop offset="0.07" stop-color="#FFCC4D"/>
</linearGradient>
<linearGradient id="paint3_linear_234_81" x1="0" y1="169.41" x2="23.04" y2="169.41" gradientUnits="userSpaceOnUse">
<stop offset="0.02" stop-color="#FFA626"/>
<stop offset="0.07" stop-color="#EC8C0D"/>
</linearGradient>
<linearGradient id="paint4_linear_234_81" x1="74.86" y1="74.86" x2="94.09" y2="94.09" gradientUnits="userSpaceOnUse">
<stop stop-color="#FFA626"/>
<stop offset="0.5" stop-color="#B95900"/>
<stop offset="1" stop-color="#FFB333"/>
</linearGradient>
<linearGradient id="paint5_linear_234_81" x1="102.01" y1="93.98" x2="110.61" y2="-4.24" gradientUnits="userSpaceOnUse">
<stop offset="0.34" stop-color="#FFB333"/>
<stop offset="0.83" stop-color="#FFE666"/>
<stop offset="0.84" stop-color="#FFFF80"/>
<stop offset="1" stop-color="white"/>
</linearGradient>
<linearGradient id="paint6_linear_234_81" x1="118.19" y1="92.76" x2="126.53" y2="-2.57" gradientUnits="userSpaceOnUse">
<stop offset="0.34" stop-color="#FFD959"/>
<stop offset="0.39" stop-color="#FFDF5F"/>
<stop offset="0.66" stop-color="#FFF677"/>
<stop offset="0.83" stop-color="white"/>
<stop offset="1" stop-color="white"/>
</linearGradient>
<linearGradient id="paint7_linear_234_81" x1="-2.58" y1="126.54" x2="92.76" y2="118.2" gradientUnits="userSpaceOnUse">
<stop stop-color="#FFFF80"/>
<stop offset="0.17" stop-color="#F9991A"/>
<stop offset="0.66" stop-color="#FFD959"/>
</linearGradient>
<linearGradient id="paint8_linear_234_81" x1="88.7" y1="63.16" x2="94.45" y2="-2.59" gradientUnits="userSpaceOnUse">
<stop stop-color="#FFD959"/>
<stop offset="0.09" stop-color="#FFDF5F"/>
<stop offset="0.52" stop-color="#FFF677"/>
<stop offset="0.79" stop-color="#FFFF80"/>
<stop offset="0.8" stop-color="white"/>
<stop offset="1" stop-color="white"/>
</linearGradient>
<linearGradient id="paint9_linear_234_81" x1="1551.65" y1="900.999" x2="12465.9" y2="1794.35" gradientUnits="userSpaceOnUse">
<stop stop-color="#FFFF80"/>
<stop offset="0.17" stop-color="#F9991A"/>
<stop offset="0.66" stop-color="#FFD959"/>
</linearGradient>
<linearGradient id="paint10_linear_234_81" x1="22.8375" y1="-10858.7" x2="925.567" y2="119.245" gradientUnits="userSpaceOnUse">
<stop offset="0.34" stop-color="#FFD959"/>
<stop offset="0.39" stop-color="#FFDF5F"/>
<stop offset="0.66" stop-color="#FFF677"/>
<stop offset="0.83" stop-color="white"/>
<stop offset="1" stop-color="white"/>
</linearGradient>
<clipPath id="clip0_234_81">
<rect width="179.63" height="179.72" fill="white"/>
</clipPath>
</defs>
</svg>
