<svg width="44" height="45" viewBox="0 0 44 45" fill="none" xmlns="http://www.w3.org/2000/svg">
<path d="M17.4167 5.09848L17.9753 5.10177C26.3186 5.2005 33 7.51459 33 11.5151L33.0015 18.0842C38.2032 18.9576 42.1667 23.4819 42.1667 28.9318C42.1667 35.0069 37.2418 39.9318 31.1667 39.9318C29.5146 39.9318 27.9126 39.566 26.4548 38.8739C23.8833 39.5562 20.7308 39.9318 17.4167 39.9318C9.00197 39.9318 2.13766 37.7047 1.84319 33.7793L1.83334 33.5151V11.5151L1.84319 11.2509C2.13766 7.32561 9.00195 5.09848 17.4167 5.09848ZM5.4993 30.5402L5.50001 33.5151C5.50001 33.8125 5.99769 34.1849 6.87681 34.5587L7.39345 34.7623C7.57781 34.8299 7.77408 34.8971 7.98156 34.9635L8.63694 35.1597C8.75154 35.1918 8.86878 35.2236 8.98855 35.2551L9.73697 35.4387C10.3849 35.5873 11.092 35.7237 11.8473 35.8411L12.7762 35.9723L13.7471 36.0826C14.9029 36.198 16.136 36.2651 17.4167 36.2651C19.0619 36.2651 20.6556 36.164 22.1292 35.9747L22.6582 35.9003L22.4606 35.6562L22.292 35.4322C22.2472 35.3711 22.203 35.3095 22.1595 35.2475L22.4606 35.6562C22.2879 35.4327 22.1237 35.2027 21.9686 34.9665C21.9375 34.9191 21.9077 34.873 21.8783 34.8267C21.8302 34.7511 21.7823 34.6737 21.7354 34.5957C21.6893 34.5191 21.6443 34.4421 21.6002 34.3646C21.5684 34.3086 21.5375 34.2532 21.5072 34.1976C21.4596 34.1104 21.4129 34.0222 21.3675 33.9333C21.3287 33.8575 21.2905 33.7805 21.2532 33.7031C21.2151 33.6239 21.1782 33.545 21.1422 33.4656C21.1099 33.3942 21.0781 33.322 21.0471 33.2494C21.0103 33.1631 20.9748 33.077 20.9404 32.9905C20.913 32.9216 20.8861 32.8518 20.8599 32.7816C20.8218 32.6797 20.7853 32.5774 20.7502 32.4744L20.7476 32.4666C19.6683 32.5546 18.551 32.5985 17.4167 32.5985C12.6376 32.5985 8.35864 31.8801 5.4993 30.5402ZM31.1667 21.5985C29.0556 21.5985 27.093 22.4929 25.7092 24.0334C24.5078 25.3708 23.8333 27.0964 23.8333 28.9318C23.8333 29.3538 23.8688 29.7706 23.9387 30.1794C24.31 32.35 25.6491 34.235 27.5557 35.3163C28.6473 35.9354 29.8809 36.2651 31.1667 36.2651C35.2167 36.2651 38.5 32.9819 38.5 28.9318C38.5 24.8818 35.2167 21.5985 31.1667 21.5985ZM36.588 25.8021C37.2489 26.463 37.2998 27.5029 36.7405 28.2221L36.588 28.3948L31.5464 33.4365C30.8855 34.0974 29.8456 34.1482 29.1264 33.589L28.9536 33.4365L26.2036 30.6865C25.4877 29.9705 25.4877 28.8097 26.2036 28.0938C26.8645 27.4329 27.9045 27.3821 28.6237 27.9413L28.7964 28.0938L30.25 29.546L33.9953 25.8021C34.7113 25.0862 35.8721 25.0862 36.588 25.8021ZM5.4993 23.2069L5.50001 26.1818C5.50001 26.4792 5.99769 26.8516 6.87681 27.2254L7.39345 27.4289C7.57781 27.4966 7.77408 27.5638 7.98156 27.6302L8.63694 27.8264C8.75154 27.8585 8.86878 27.8903 8.98855 27.9217L9.73697 28.1054C10.3849 28.254 11.092 28.3904 11.8473 28.5077L12.7762 28.639L13.7471 28.7492C14.9029 28.8646 16.136 28.9318 17.4167 28.9318C18.3522 28.9318 19.2734 28.8992 20.1688 28.8356C20.1783 27.5478 20.4118 26.2958 20.8441 25.1237C19.7356 25.2185 18.5856 25.2651 17.4167 25.2651C12.6376 25.2651 8.35864 24.5468 5.4993 23.2069ZM29.3359 15.8727C26.4765 17.2131 22.1968 17.9318 17.4167 17.9318C12.6376 17.9318 8.35864 17.2134 5.4993 15.8736L5.50001 18.8485C5.50001 19.1458 5.99769 19.5182 6.87681 19.892L7.39345 20.0956C7.57781 20.1632 7.77408 20.2305 7.98156 20.2968L8.63694 20.493C8.75154 20.5252 8.86878 20.557 8.98855 20.5884L9.73697 20.7721C10.3849 20.9206 11.092 21.0571 11.8473 21.1744L12.7762 21.3056L13.7471 21.4159C14.9029 21.5313 16.136 21.5985 17.4167 21.5985C19.5514 21.5985 21.606 21.4287 23.4369 21.1114C24.9833 19.5756 26.95 18.5361 29.0969 18.1268L29.3333 18.0876L29.3359 15.8727ZM17.4167 8.76515C16.136 8.76515 14.9029 8.83233 13.7471 8.94772L12.7762 9.05798L11.8473 9.18921C11.092 9.30656 10.3849 9.44298 9.73697 9.59154L8.98854 9.77521C8.86877 9.80665 8.75154 9.83846 8.63693 9.87059L7.98155 10.0668C7.77407 10.1332 7.5778 10.2004 7.39345 10.268L6.8768 10.4716C5.99769 10.8454 5.50001 11.2178 5.50001 11.5151C5.50001 11.8125 5.99769 12.1849 6.87681 12.5587L7.39345 12.7623C7.57781 12.8299 7.77408 12.8971 7.98156 12.9635L8.63694 13.1597C8.75154 13.1918 8.86878 13.2236 8.98855 13.2551L9.73697 13.4387C10.3849 13.5873 11.092 13.7237 11.8473 13.8411L12.7762 13.9723L13.7471 14.0826C14.9029 14.198 16.136 14.2651 17.4167 14.2651C18.6973 14.2651 19.9305 14.198 21.0862 14.0826L22.0572 13.9723L22.986 13.8411C23.7414 13.7237 24.4484 13.5873 25.0964 13.4387L25.8448 13.2551C25.9646 13.2236 26.0818 13.1918 26.1964 13.1597L26.8518 12.9635C27.0593 12.8971 27.2555 12.8299 27.4399 12.7623L27.9565 12.5587C28.8357 12.1849 29.3333 11.8125 29.3333 11.5151C29.3333 11.2178 28.8357 10.8454 27.9566 10.4716L27.4399 10.268C27.2555 10.2004 27.0593 10.1332 26.8518 10.0668L26.1964 9.87059C26.0818 9.83846 25.9646 9.80665 25.8448 9.77521L25.0964 9.59154C24.4485 9.44298 23.7414 9.30656 22.986 9.18921L22.0572 9.05798L21.0862 8.94772C19.9305 8.83233 18.6973 8.76515 17.4167 8.76515Z" fill="#2D76F9"/>
</svg>
