<svg width="44" height="45" viewBox="0 0 44 45" fill="none" xmlns="http://www.w3.org/2000/svg">
<path d="M15.5833 2.34848C14.5708 2.34848 13.75 3.16929 13.75 4.18181C13.75 5.19434 14.5708 6.01515 15.5833 6.01515H28.4167C29.4292 6.01515 30.25 5.19434 30.25 4.18181C30.25 3.16929 29.4292 2.34848 28.4167 2.34848H15.5833Z" fill="#2D76F9"/>
<path d="M23.8333 17.0151C23.8333 16.0026 23.0125 15.1818 22 15.1818C20.9875 15.1818 20.1667 16.0026 20.1667 17.0151V25.2651C20.1667 26.2777 20.9875 27.0985 22 27.0985C23.0125 27.0985 23.8333 26.2777 23.8333 25.2651V17.0151Z" fill="#2D76F9"/>
<path fill-rule="evenodd" clip-rule="evenodd" d="M22 7.84848C12.3811 7.84848 4.58334 15.6462 4.58334 25.2651C4.58334 34.8841 12.3811 42.6818 22 42.6818C31.6189 42.6818 39.4167 34.8841 39.4167 25.2651C39.4167 20.4157 37.4347 16.0291 34.2365 12.8713L36.1297 10.9782C36.8457 10.2622 36.8457 9.10141 36.1297 8.38545C35.4137 7.66949 34.2529 7.66949 33.537 8.38545L31.3524 10.57C28.6507 8.84693 25.442 7.84848 22 7.84848ZM8.25001 25.2651C8.25001 17.6713 14.4061 11.5151 22 11.5151C29.5939 11.5151 35.75 17.6713 35.75 25.2651C35.75 32.859 29.5939 39.0151 22 39.0151C14.4061 39.0151 8.25001 32.859 8.25001 25.2651Z" fill="#2D76F9"/>
</svg>
