
<svg width="42" height="43" viewBox="0 0 42 43" fill="none" xmlns="http://www.w3.org/2000/svg">
<path fill-rule="evenodd" clip-rule="evenodd" d="M20.5173 1.46022C20.8376 1.36673 21.178 1.36678 21.4983 1.46034L37.2407 6.05903C37.987 6.27704 38.5 6.96132 38.5 7.73882V17.1696C38.5 27.8354 31.6743 37.3043 21.5555 40.6758C21.1964 40.7955 20.8083 40.7955 20.4492 40.6759C10.3277 37.3044 3.5 27.8335 3.5 17.1652V7.73882C3.5 6.96115 4.0132 6.27677 4.75973 6.0589L20.5173 1.46022ZM7 9.05111V17.1652C7 26.131 12.6156 34.112 21.0022 37.1626C29.3864 34.112 35 26.133 35 17.1696V9.05075L21.0073 4.96321L7 9.05111ZM20.956 11.8462C21.9225 11.8462 22.706 12.6297 22.706 13.5962V18.8462H27.956C28.9225 18.8462 29.706 19.6297 29.706 20.5962C29.706 21.5627 28.9225 22.3462 27.956 22.3462H22.706V27.5962C22.706 28.5627 21.9225 29.3462 20.956 29.3462C19.9895 29.3462 19.206 28.5627 19.206 27.5962V22.3462H13.956C12.9895 22.3462 12.206 21.5627 12.206 20.5962C12.206 19.6297 12.9895 18.8462 13.956 18.8462H19.206V13.5962C19.206 12.6297 19.9895 11.8462 20.956 11.8462Z" fill="#2D76F9"/>
</svg>
