<svg width="44" height="45" viewBox="0 0 44 45" fill="none" xmlns="http://www.w3.org/2000/svg">
<path fill-rule="evenodd" clip-rule="evenodd" d="M7.74 8.25515C11.3875 4.60772 16.4317 2.34848 22 2.34848C27.5683 2.34848 32.6125 4.60772 36.2599 8.25515C39.9074 11.9026 42.1666 16.9468 42.1666 22.5151C42.1666 28.0835 39.9074 33.1277 36.2599 36.7751C32.6125 40.4225 27.5683 42.6818 22 42.6818C16.4316 42.6818 11.3875 40.4225 7.74 36.7751C4.09257 33.1277 1.83331 28.0835 1.83331 22.5151C1.83331 16.9468 4.09258 11.9026 7.74 8.25515ZM22 6.01515C17.4432 6.01515 13.3207 7.85996 10.3327 10.8479C7.34478 13.8359 5.49998 17.9583 5.49998 22.5151C5.49998 27.072 7.3448 31.1944 10.3327 34.1824C13.3207 37.1703 17.4432 39.0151 22 39.0151C26.5568 39.0151 30.6793 37.1703 33.6672 34.1824C36.6551 31.1944 38.5 27.072 38.5 22.5151C38.5 17.9583 36.6551 13.8359 33.6672 10.8479C30.6793 7.85997 26.5568 6.01515 22 6.01515ZM32.463 15.7188C33.179 16.4347 33.179 17.5955 32.463 18.3115L21.463 29.3115C20.747 30.0275 19.5862 30.0275 18.8703 29.3115L13.3703 23.8115C12.6543 23.0955 12.6543 21.9347 13.3703 21.2188C14.0862 20.5028 15.247 20.5028 15.963 21.2188L20.1666 25.4224L29.8703 15.7188C30.5862 15.0028 31.747 15.0028 32.463 15.7188Z" fill="#2D76F9"/>
</svg>
