<svg width="108" height="50" fill="none" xmlns="http://www.w3.org/2000/svg"><path fill-rule="evenodd" clip-rule="evenodd" d="M29.553 7.796h9.066v1.688h-3.57v9.514h-1.956V9.484h-3.555l.015-1.688zm8.678 3.092h1.672v1.568h.03c.06-.224.165-.433.314-.642.15-.209.329-.403.553-.568.209-.179.448-.313.717-.418a2.09 2.09 0 01.791-.164c.13 0 .238.006.319.01.048.003.086.005.114.005.075.015.165.03.24.03v1.718a3.01 3.01 0 00-.39-.06l-.036-.004a2.946 2.946 0 00-.352-.026c-.298 0-.582.06-.85.18a2.14 2.14 0 00-.703.522 2.835 2.835 0 00-.478.866c-.12.344-.179.747-.179 1.195v3.853h-1.792l.03-8.065zm11.201 8.11h1.778v-8.11h-1.793v4.705c0 .313-.03.612-.104.881-.075.269-.18.508-.344.702a1.615 1.615 0 01-.612.463c-.254.12-.568.18-.941.18-.493 0-.881-.15-1.15-.449-.284-.284-.418-.791-.418-1.508v-4.974h-1.792v5.153c0 1.06.239 1.867.716 2.39.478.537 1.255.791 2.316.791.447 0 .896-.12 1.329-.373.433-.254.761-.568.986-.986h.03v1.135zm4.81-2.599c.06.523.254.881.597 1.105.343.21.762.314 1.24.314.164 0 .358-.015.567-.045a2.5 2.5 0 00.598-.15 1.05 1.05 0 00.463-.328.762.762 0 00.164-.552.803.803 0 00-.254-.568c-.164-.15-.358-.254-.597-.358a5.18 5.18 0 00-.837-.224c-.255-.049-.51-.107-.773-.168l-.183-.042a10.313 10.313 0 01-.97-.268 2.78 2.78 0 01-.837-.434 1.862 1.862 0 01-.582-.686c-.15-.284-.224-.613-.224-1.031 0-.448.104-.807.328-1.105.21-.299.493-.538.822-.717a3.73 3.73 0 011.105-.388 6.325 6.325 0 011.15-.105c.418 0 .821.045 1.195.134.373.09.732.224 1.03.434.314.194.568.463.762.776.21.314.329.702.388 1.15h-1.867c-.09-.433-.283-.717-.582-.866a2.405 2.405 0 00-1.06-.224c-.12 0-.284.015-.449.03a2.62 2.62 0 00-.492.12c-.15.059-.284.149-.389.253a.598.598 0 00-.164.433c0 .224.075.389.224.523.15.134.343.239.597.343.24.09.523.165.837.224.313.06.642.135.97.21.33.074.643.164.956.268.314.105.598.24.837.434.239.179.448.403.597.672.15.268.224.612.224 1 0 .478-.104.882-.328 1.225a2.793 2.793 0 01-.852.822 4.226 4.226 0 01-1.165.463c-.433.09-.85.149-1.27.149-.507 0-.985-.06-1.418-.18a3.613 3.613 0 01-1.135-.522 2.507 2.507 0 01-.747-.881c-.18-.344-.284-.762-.299-1.255h1.808v.015h.015zm7.258-5.511h-1.36v1.33h1.36v4.779a5.1 5.1 0 00.105.896c.06.254.164.463.328.642.164.164.389.299.672.388.284.09.657.135 1.135.135.21 0 .389 0 .583-.03.194-.015.388-.03.582-.06v-1.389a2.888 2.888 0 01-.337.055l-.036.005c-.12.015-.254.015-.373.015-.21 0-.359-.03-.478-.075a.583.583 0 01-.254-.21 1.02 1.02 0 01-.105-.343 4.605 4.605 0 01-.03-.492v-4.332h1.613v-1.329h-1.613V8.438H61.5v2.45zm4.675 0h1.673v1.105h.03c.254-.478.597-.806 1.045-1.015.448-.21.926-.314 1.464-.314.642 0 1.195.105 1.673.344.477.224.866.522 1.18.926.313.388.552.85.701 1.374.15.522.24 1.09.24 1.672 0 .553-.075 1.076-.21 1.584-.15.507-.358.97-.642 1.359a3.178 3.178 0 01-1.09.94c-.448.24-.956.36-1.553.36a4.56 4.56 0 01-.777-.076 3.306 3.306 0 01-.747-.224 2.68 2.68 0 01-.657-.403 2.275 2.275 0 01-.508-.567h-.03V22h-1.792V10.888zm6.094 3.002c.104.343.149.702.149 1.06 0 .359-.045.702-.12 1.06a2.622 2.622 0 01-.388.912 2.408 2.408 0 01-.702.642c-.284.164-.612.254-1.03.254-.374 0-.687-.075-.971-.224a2.133 2.133 0 01-.717-.598c-.21-.253-.344-.552-.448-.896a3.87 3.87 0 01-.15-1.135c0-.866.195-1.568.568-2.09.388-.523.956-.777 1.703-.777a1.9 1.9 0 01.97.239c.27.164.508.373.702.642.195.269.344.567.434.91zm3.3-6.094h1.793v1.688h-1.793V7.796zm1.793 3.092h-1.793v8.11h1.793v-8.11zm1.598-3.092h1.792v11.202H78.96V7.796zm5.526 11.098c.508.224 1.09.328 1.732.328a4.48 4.48 0 001.733-.329c.508-.209.94-.507 1.284-.88.344-.389.598-.837.792-1.36.194-.522.284-1.09.284-1.717 0-.613-.105-1.18-.284-1.703a3.836 3.836 0 00-.792-1.36 3.718 3.718 0 00-1.284-.88c-.508-.224-1.09-.329-1.733-.329-.642 0-1.224.12-1.732.329a3.6 3.6 0 00-1.285.88 3.971 3.971 0 00-.791 1.36 4.85 4.85 0 00-.284 1.703c0 .612.105 1.195.284 1.717.18.523.448.986.791 1.36.359.373.777.656 1.285.88zm1.733-1.091c.388 0 .746-.09 1.03-.254.299-.164.523-.388.717-.657.194-.269.329-.582.418-.911a4.097 4.097 0 000-2.076 2.678 2.678 0 00-.418-.911 2.27 2.27 0 00-.717-.642 2.107 2.107 0 00-1.03-.254c-.389 0-.747.09-1.031.254a2.287 2.287 0 00-.717.642 2.676 2.676 0 00-.418.91 4.068 4.068 0 000 2.077c.09.343.224.642.418.911.194.269.433.493.717.657.299.18.642.254 1.03.254zm5.988-6.915h-1.359v1.33h1.36v4.779a5.1 5.1 0 00.104.896c.06.254.164.463.329.642.164.164.388.299.672.388.283.09.657.135 1.135.135.209 0 .388 0 .582-.03.194-.015.388-.03.583-.06v-1.389a2.888 2.888 0 01-.338.055l-.036.005c-.12.015-.254.015-.373.015-.21 0-.359-.03-.478-.075a.583.583 0 01-.254-.21 1.02 1.02 0 01-.105-.343c-.014-.15-.03-.298-.03-.492v-4.332h1.614v-1.329H94V8.438h-1.793v2.45z" fill="#fff"/><path d="M27.462 7.796h-8.2L16.74 0 14.2 7.796 6 7.781l6.631 4.825-2.539 7.796 6.632-4.824 6.631 4.824-2.524-7.796 6.631-4.81z" fill="#00B67A"/><path d="M21.399 14.368l-.568-1.763-4.092 2.973 4.66-1.21z" fill="#005128"/><path fill="#1BB57C" d="M0 30h20v20H0z"/><path fill-rule="evenodd" clip-rule="evenodd" d="M11.643 38.431h5.37l-4.34 3.162-2.646 1.929-.014.004.004.003-.03.022-4.341 3.136 1.656-5.094-4.341-3.162h5.37l1.656-5.094 1.656 5.094zm-1.626 5.098l4.312 3.133-1.28-3.94-3.022.8-.01.007z" fill="#fff"/><path fill="#1BB57C" d="M22 30h20v20H22z"/><path fill-rule="evenodd" clip-rule="evenodd" d="M33.644 38.431h5.37l-4.342 3.162-2.645 1.929-.014.004.004.003-.03.022-4.341 3.136 1.656-5.094-4.341-3.162h5.37l1.656-5.094 1.657 5.094zm-1.627 5.098l4.312 3.133-1.28-3.94-3.022.8-.01.007z" fill="#fff"/><path fill="#1BB57C" d="M44 30h20v20H44z"/><path fill-rule="evenodd" clip-rule="evenodd" d="M55.644 38.431h5.37l-4.342 3.162-2.645 1.929-.014.004.004.003-.03.022-4.341 3.136 1.656-5.094-4.341-3.162h5.37l1.656-5.094 1.657 5.094zm-1.627 5.098l4.312 3.133-1.28-3.94-3.022.8-.01.007z" fill="#fff"/><path fill="#1BB57C" d="M66 30h20v20H66z"/><path fill-rule="evenodd" clip-rule="evenodd" d="M77.644 38.431h5.37l-4.342 3.162-2.645 1.929-.014.004.004.003-.03.022-4.341 3.136 1.656-5.094-4.341-3.162h5.37l1.656-5.094 1.657 5.094zm-1.627 5.098l4.312 3.133-1.28-3.94-3.022.8-.01.007z" fill="#fff"/><path fill="#1BB57C" d="M88 30h20v20H88z"/><path fill-rule="evenodd" clip-rule="evenodd" d="M99.644 38.431h5.37l-4.342 3.162-2.645 1.929-.014.004.004.003-.03.022-4.341 3.136 1.656-5.094-4.341-3.162h5.37l1.656-5.094 1.657 5.094zm-1.627 5.098l4.312 3.133-1.28-3.94-3.022.8-.01.007z" fill="#fff"/></svg>
