<svg xmlns="http://www.w3.org/2000/svg" xmlns:xlink="http://www.w3.org/1999/xlink" height="10" width="100" version="1.1" preserveAspectRatio="xMidYMid">
	<g>
        <!-- <path fill="orange" stroke="orange" stroke-width="2" d="M 50 10 L 75 85, 10 40, 90 40, 25 85  z"/> -->
		<!-- <path fill="orange" stroke="orange" stroke-width="2" d="M 50 10 l 25 75, -65 -45, 80 0, -65 45 z"/> -->
		 
		 <path fill="orange" stroke="orange" stroke-width="2" d="M 5 1 l 2.5 7.5, -6.5 -4.5, 8 0, -6.5 4.5 z"/> 
		 <path fill="orange" stroke="orange" stroke-width="2" d="M 25 1 l 2.5 7.5, -6.5 -4.5, 8 0, -6.5 4.5 z"/> 
		 <path fill="orange" stroke="orange" stroke-width="2" d="M 45 1 l 2.5 7.5, -6.5 -4.5, 8 0, -6.5 4.5 z"/> 
		 <path fill="orange" stroke="orange" stroke-width="2" d="M 65 1 l 2.5 7.5, -6.5 -4.5, 8 0, -6.5 4.5 z"/> 
		 <path fill="orange" stroke="orange" stroke-width="2" d="M 85 1 l 2.5 7.5, -6.5 -4.5, 8 0, -6.5 4.5 z"/> 
	</g>
</svg>