<svg width="110" height="18" viewBox="0 0 110 18" fill="none" xmlns="http://www.w3.org/2000/svg">
<path d="M8.09194 1.96867C8.44936 1.1938 9.55064 1.19379 9.90806 1.96866L11.3048 4.99675C11.4504 5.31256 11.7497 5.53 12.0951 5.57095L15.4066 5.96358C16.254 6.06406 16.5943 7.11144 15.9678 7.69081L13.5195 9.9549C13.2642 10.191 13.1499 10.5429 13.2177 10.884L13.8675 14.1547C14.0339 14.9917 13.1429 15.639 12.3983 15.2222L9.48844 13.5934C9.18497 13.4235 8.81503 13.4235 8.51156 13.5934L5.60172 15.2222C4.85711 15.639 3.96615 14.9917 4.13245 14.1547L4.78235 10.884C4.85012 10.5429 4.73581 10.191 4.48047 9.95491L2.0322 7.69081C1.4057 7.11144 1.74601 6.06406 2.59341 5.96358L5.9049 5.57095C6.25027 5.53 6.54955 5.31256 6.69522 4.99676L8.09194 1.96867Z" fill="#F5CC6B"/>
<path d="M31.0919 1.96867C31.4494 1.1938 32.5506 1.19379 32.9081 1.96866L34.3048 4.99675C34.4504 5.31256 34.7497 5.53 35.0951 5.57095L38.4066 5.96358C39.254 6.06406 39.5943 7.11144 38.9678 7.69081L36.5195 9.9549C36.2642 10.191 36.1499 10.5429 36.2177 10.884L36.8675 14.1547C37.0339 14.9917 36.1429 15.639 35.3983 15.2222L32.4884 13.5934C32.185 13.4235 31.815 13.4235 31.5116 13.5934L28.6017 15.2222C27.8571 15.639 26.9661 14.9917 27.1325 14.1547L27.7823 10.884C27.8501 10.5429 27.7358 10.191 27.4805 9.95491L25.0322 7.69081C24.4057 7.11144 24.746 6.06406 25.5934 5.96358L28.9049 5.57095C29.2503 5.53 29.5496 5.31256 29.6952 4.99676L31.0919 1.96867Z" fill="#F5CC6B"/>
<path d="M54.0919 1.96867C54.4494 1.1938 55.5506 1.19379 55.9081 1.96866L57.3048 4.99675C57.4504 5.31256 57.7497 5.53 58.0951 5.57095L61.4066 5.96358C62.254 6.06406 62.5943 7.11144 61.9678 7.69081L59.5195 9.9549C59.2642 10.191 59.1499 10.5429 59.2177 10.884L59.8675 14.1547C60.0339 14.9917 59.1429 15.639 58.3983 15.2222L55.4884 13.5934C55.185 13.4235 54.815 13.4235 54.5116 13.5934L51.6017 15.2222C50.8571 15.639 49.9661 14.9917 50.1325 14.1547L50.7823 10.884C50.8501 10.5429 50.7358 10.191 50.4805 9.95491L48.0322 7.69081C47.4057 7.11144 47.746 6.06406 48.5934 5.96358L51.9049 5.57095C52.2503 5.53 52.5496 5.31256 52.6952 4.99676L54.0919 1.96867Z" fill="#F5CC6B"/>
<path d="M77.0919 1.96867C77.4494 1.1938 78.5506 1.19379 78.9081 1.96866L80.3048 4.99675C80.4504 5.31256 80.7497 5.53 81.0951 5.57095L84.4066 5.96358C85.254 6.06406 85.5943 7.11144 84.9678 7.69081L82.5195 9.9549C82.2642 10.191 82.1499 10.5429 82.2177 10.884L82.8675 14.1547C83.0339 14.9917 82.1429 15.639 81.3983 15.2222L78.4884 13.5934C78.185 13.4235 77.815 13.4235 77.5116 13.5934L74.6017 15.2222C73.8571 15.639 72.9661 14.9917 73.1325 14.1547L73.7823 10.884C73.8501 10.5429 73.7358 10.191 73.4805 9.95491L71.0322 7.69081C70.4057 7.11144 70.746 6.06406 71.5934 5.96358L74.9049 5.57095C75.2503 5.53 75.5496 5.31256 75.6952 4.99676L77.0919 1.96867Z" fill="#F5CC6B"/>
<path d="M100.092 1.96867C100.449 1.1938 101.551 1.19379 101.908 1.96866L103.305 4.99675C103.45 5.31256 103.75 5.53 104.095 5.57095L107.407 5.96358C108.254 6.06406 108.594 7.11144 107.968 7.69081L105.52 9.9549C105.264 10.191 105.15 10.5429 105.218 10.884L105.868 14.1547C106.034 14.9917 105.143 15.639 104.398 15.2222L101.488 13.5934C101.185 13.4235 100.815 13.4235 100.512 13.5934L97.6017 15.2222C96.8571 15.639 95.9661 14.9917 96.1325 14.1547L96.7823 10.884C96.8501 10.5429 96.7358 10.191 96.4805 9.95491L94.0322 7.69081C93.4057 7.11144 93.746 6.06406 94.5934 5.96358L97.9049 5.57095C98.2503 5.53 98.5496 5.31256 98.6952 4.99676L100.092 1.96867Z" fill="#F5CC6B"/>
</svg>
