
<svg width="133" height="18" fill="none" xmlns="http://www.w3.org/2000/svg">
<path d="M107.384 11.56h-1.888V15h-1.248v-3.44H99.32v-.529l5.312-7.407h.864v6.816h1.888v1.12zm-3.136-4.608l.16-1.312h-.048l-.56 1.088-2.256 3.056-.768.784 1.12-.128h2.352V6.952zm4.255 7.312c0-.288.08-.512.24-.672.17-.171.394-.257.672-.257.288 0 .517.086.688.256.17.16.256.385.256.673 0 .277-.086.5-.256.671-.171.171-.4.256-.688.256-.278 0-.502-.085-.672-.256-.16-.17-.24-.394-.24-.671zm6.046-.192c.736 0 1.344-.214 1.824-.64.48-.427.72-1.046.72-1.857 0-.778-.24-1.36-.72-1.743-.47-.384-1.12-.576-1.952-.576l-1.344.08V3.8h4.992v1.184h-3.792v3.184l.688-.032c1.056.01 1.888.304 2.496.88.608.576.912 1.402.912 2.48 0 .597-.102 1.13-.304 1.6a3.27 3.27 0 01-.832 1.152 3.467 3.467 0 01-1.216.704c-.47.16-.971.24-1.504.24-.48 0-.886-.027-1.216-.08a4.912 4.912 0 01-.928-.24l.336-1.088c.245.095.506.17.784.223a7.3 7.3 0 001.056.065zm10.558-10.464l1.008.448-5.84 13.183-1.008-.448 5.84-13.183zm3.817 10.463c.736 0 1.344-.213 1.824-.64.48-.426.72-1.045.72-1.855 0-.78-.24-1.36-.72-1.744-.47-.384-1.12-.576-1.952-.576l-1.344.08V3.8h4.992v1.184h-3.792v3.184l.688-.032c1.056.01 1.888.304 2.496.88.608.576.912 1.402.912 2.48 0 .597-.102 1.13-.304 1.6a3.27 3.27 0 01-.832 1.152 3.467 3.467 0 01-1.216.704c-.47.16-.971.24-1.504.24-.48 0-.886-.027-1.216-.08a4.912 4.912 0 01-.928-.24l.336-1.088c.245.095.506.17.784.223a7.3 7.3 0 001.056.065z" fill="#202020" fill-opacity=".7"/>
<path fill-rule="evenodd" clip-rule="evenodd" d="M14.854 5.49c0-.269-.286-.376-.5-.411l-4.481-.652L7.864.366C7.784.196 7.632 0 7.427 0c-.206 0-.357.196-.438.366L4.981 4.427.5 5.08c-.223.035-.5.142-.5.41 0 .16.116.313.223.429l3.25 3.16-.768 4.463-.003.021a1.031 1.031 0 00-.015.158c0 .232.116.446.375.446a.755.755 0 00.357-.107l4.008-2.107 4.008 2.107a.727.727 0 00.357.107c.259 0 .366-.214.366-.447 0-.062 0-.116-.01-.178l-.767-4.463 3.24-3.16c.116-.116.232-.268.232-.429zm18.856 0c0-.269-.285-.376-.5-.411l-4.48-.652L26.72.366C26.64.196 26.49 0 26.284 0c-.205 0-.357.196-.437.366l-2.008 4.061-4.481.652c-.224.035-.5.142-.5.41 0 .16.116.313.223.429l3.249 3.16-.768 4.463-.003.021a1.051 1.051 0 00-.015.158c0 .232.117.446.375.446a.756.756 0 00.358-.107l4.007-2.107 4.008 2.107a.727.727 0 00.357.107c.26 0 .366-.214.366-.447 0-.062 0-.116-.008-.178l-.768-4.463 3.24-3.16c.116-.116.232-.268.232-.429zm18.357-.411c.214.035.5.142.5.41 0 .16-.116.313-.232.429l-3.24 3.16.767 4.463c.01.062.01.116.01.178 0 .233-.108.447-.367.447a.727.727 0 01-.357-.107l-4.008-2.107-4.008 2.107a.755.755 0 01-.357.107c-.259 0-.375-.214-.375-.447 0-.055.007-.103.015-.157l.003-.021.768-4.463-3.25-3.16c-.107-.116-.222-.268-.222-.429 0-.268.276-.375.5-.41l4.48-.652L44.703.366c.08-.17.232-.366.437-.366.206 0 .357.196.438.366l2.008 4.061 4.481.652zm19.357.41c0-.268-.286-.375-.5-.41l-4.481-.652L64.434.366c-.08-.17-.232-.366-.437-.366-.206 0-.357.196-.438.366l-2.008 4.061-4.481.652c-.223.035-.5.142-.5.41 0 .16.116.313.223.429l3.25 3.16-.768 4.463-.003.021a1.053 1.053 0 00-.015.158c0 .232.116.446.375.446a.755.755 0 00.357-.107l4.008-2.107 4.008 2.107a.727.727 0 00.357.107c.259 0 .366-.214.366-.447 0-.062 0-.116-.01-.178l-.767-4.463 3.24-3.16c.117-.116.233-.268.233-.429zm18.356-.41c.215.035.5.142.5.41 0 .16-.116.313-.232.429l-3.24 3.16.768 4.463c.009.062.009.116.009.178 0 .233-.108.447-.366.447a.727.727 0 01-.358-.107l-4.008-2.107-4.007 2.107a.755.755 0 01-.358.107c-.258 0-.374-.214-.374-.447a1.051 1.051 0 01.017-.178l.768-4.463-3.25-3.16c-.106-.116-.222-.268-.222-.429 0-.268.276-.375.5-.41l4.48-.652 2.01-4.061c.08-.17.231-.366.436-.366.206 0 .358.196.438.366l2.008 4.061 4.481.652z" fill="#F9C135"/>
</svg>
