<svg width="136" height="24" fill="none" xmlns="http://www.w3.org/2000/svg"><path d="M107.384 15.56h-1.888V19h-1.248v-3.44H99.32v-.529l5.312-7.407h.864v6.816h1.888v1.12zm-3.136-4.609l.16-1.311h-.048l-.56 1.087-2.256 3.056-.768.785 1.12-.128h2.352v-3.49zm4.255 7.313c0-.288.08-.512.24-.672.17-.171.394-.256.672-.256.288 0 .517.085.688.256.17.16.256.384.256.672 0 .277-.086.5-.256.672-.171.17-.4.256-.688.256-.278 0-.502-.086-.672-.256-.16-.171-.24-.395-.24-.672zm4.398.736l4.016-9.376.704-.784-.944.144h-4.56V7.8h6.688v.432L114.197 19h-1.296zm12.206-11.392l1.008.448-5.84 13.184-1.008-.448 5.84-13.184zm3.817 10.463c.736 0 1.344-.213 1.824-.64.48-.426.72-1.045.72-1.856 0-.778-.24-1.36-.72-1.743-.47-.385-1.12-.577-1.952-.577l-1.344.08V7.8h4.992v1.184h-3.792v3.184l.688-.032c1.056.01 1.888.304 2.496.88.608.575.912 1.402.912 2.48 0 .597-.102 1.13-.304 1.6a3.27 3.27 0 01-.832 1.151c-.342.31-.747.544-1.216.704-.47.16-.971.24-1.504.24-.48 0-.886-.026-1.216-.08a4.912 4.912 0 01-.928-.24l.336-1.087c.245.096.506.17.784.224.288.042.64.064 1.056.064z" fill="#202020" fill-opacity=".7"/><path fill-rule="evenodd" clip-rule="evenodd" d="M14.854 10.49c0-.268-.286-.376-.5-.411l-4.481-.652-2.009-4.061C7.784 5.196 7.632 5 7.427 5c-.206 0-.357.196-.438.366L4.981 9.427.5 10.08c-.223.035-.5.143-.5.41 0 .16.116.313.223.429l3.25 3.16-.768 4.463-.003.021a1.03 1.03 0 00-.015.157c0 .233.116.447.375.447a.755.755 0 00.357-.107l4.008-2.107 4.008 2.107a.727.727 0 00.357.107c.259 0 .366-.214.366-.447 0-.062 0-.116-.01-.178l-.767-4.463 3.24-3.16c.116-.116.232-.268.232-.429zm18.856 0c0-.268-.285-.376-.5-.411l-4.48-.652-2.01-4.061c-.08-.17-.231-.366-.437-.366-.205 0-.357.196-.437.366l-2.008 4.061-4.481.652c-.224.035-.5.143-.5.41 0 .16.116.313.223.429l3.249 3.16-.768 4.463-.003.021a1.051 1.051 0 00-.015.157c0 .233.117.447.375.447a.756.756 0 00.358-.107l4.007-2.107 4.008 2.107a.727.727 0 00.357.107c.26 0 .366-.214.366-.447 0-.062 0-.116-.008-.178l-.768-4.463 3.24-3.16c.116-.116.232-.268.232-.429zm18.357-.411c.214.035.5.143.5.41 0 .16-.116.313-.232.429l-3.24 3.16.767 4.463c.01.062.01.116.01.178 0 .233-.108.447-.367.447a.727.727 0 01-.357-.107l-4.008-2.107-4.008 2.107a.755.755 0 01-.357.107c-.259 0-.375-.214-.375-.447 0-.055.007-.103.015-.157l.003-.021.768-4.463-3.25-3.16c-.107-.116-.222-.268-.222-.429 0-.268.276-.375.5-.41l4.48-.652 2.009-4.061c.08-.17.232-.366.437-.366.206 0 .357.196.438.366l2.008 4.061 4.481.652zm19.357.41c0-.268-.286-.375-.5-.41l-4.481-.652-2.009-4.061c-.08-.17-.232-.366-.437-.366-.206 0-.357.196-.438.366l-2.008 4.061-4.481.652c-.223.035-.5.143-.5.41 0 .16.116.313.223.429l3.25 3.16-.768 4.463-.003.021a1.053 1.053 0 00-.015.157c0 .233.116.447.375.447a.755.755 0 00.357-.107l4.008-2.107 4.008 2.107a.727.727 0 00.357.107c.259 0 .366-.214.366-.447 0-.062 0-.116-.01-.178l-.767-4.463 3.24-3.16c.117-.116.233-.268.233-.429zm18.356-.41c.215.035.5.143.5.41 0 .16-.116.313-.232.429l-3.24 3.16.768 4.463c.009.062.009.116.009.178 0 .233-.108.447-.366.447a.727.727 0 01-.358-.107l-4.008-2.107-4.007 2.107a.755.755 0 01-.358.107c-.258 0-.374-.214-.374-.447a1.051 1.051 0 01.017-.178l.768-4.463-3.25-3.16c-.106-.116-.222-.268-.222-.429 0-.268.276-.375.5-.41l4.48-.652 2.01-4.061c.08-.17.231-.366.436-.366.206 0 .358.196.438.366l2.008 4.061 4.481.652z" fill="#F9C135"/></svg>
